<?xml version="1.0" encoding="UTF-8" standalone="no"?>
<!-- Created with Inkscape (http://www.inkscape.org/) -->

<svg
   width="512"
   height="512"
   viewBox="0 0 135.46666 135.46667"
   version="1.1"
   id="svg5673"
   xml:space="preserve"
   inkscape:version="1.2.2 (732a01da63, 2022-12-09)"
   sodipodi:docname="fewclouds.svg"
   xmlns:inkscape="http://www.inkscape.org/namespaces/inkscape"
   xmlns:sodipodi="http://sodipodi.sourceforge.net/DTD/sodipodi-0.dtd"
   xmlns="http://www.w3.org/2000/svg"
   xmlns:svg="http://www.w3.org/2000/svg"><sodipodi:namedview
     id="namedview5675"
     pagecolor="#ffffff"
     bordercolor="#000000"
     borderopacity="0.25"
     inkscape:showpageshadow="2"
     inkscape:pageopacity="0.0"
     inkscape:pagecheckerboard="0"
     inkscape:deskcolor="#d1d1d1"
     inkscape:document-units="mm"
     showgrid="false"
     inkscape:zoom="0.914906"
     inkscape:cx="398.40158"
     inkscape:cy="357.96027"
     inkscape:window-width="1624"
     inkscape:window-height="1230"
     inkscape:window-x="420"
     inkscape:window-y="99"
     inkscape:window-maximized="0"
     inkscape:current-layer="layer1" /><defs
     id="defs5670" /><g
     inkscape:label="Calque 1"
     inkscape:groupmode="layer"
     id="layer1"><g
       id="g5691"
       transform="translate(-27.60553,-49.574045)"><path
         style="fill:#fdd632;fill-opacity:1;stroke-width:1"
         d="m 44.867043,149.11027 c -0.326187,-0.0629 -0.951265,-0.47257 -1.389062,-0.91036 -0.671509,-0.67151 -0.795995,-1.00176 -0.795995,-2.1117 0,-0.72364 0.167629,-1.63721 0.372508,-2.03017 0.204879,-0.39295 2.096712,-2.4111 4.204074,-4.48478 l 3.831567,-3.77031 h 1.699549 c 1.514024,0 1.776647,0.0805 2.405807,0.73718 0.82685,0.86304 1.116733,2.02124 0.856152,3.42065 -0.154498,0.82971 -0.825992,1.647 -3.91383,4.76362 -4.403402,4.44444 -5.024427,4.81906 -7.27077,4.38587 z M 63.02674,131.37118 c -2.065309,-1.84307 -2.247622,-2.03806 -3.513923,-3.75821 -1.184945,-1.60963 -2.917447,-4.92213 -3.367498,-6.43858 -1.635498,-5.51079 -1.277104,-11.6611 0.959665,-16.46858 1.244947,-2.67576 2.949662,-5.008326 5.244081,-7.175483 2.100133,-1.983647 2.964349,-2.588503 5.336045,-3.734633 2.766467,-1.336905 4.582387,-1.85774 7.548012,-2.164893 6.395172,-0.662352 12.414358,1.152954 17.233005,5.197245 0.833408,0.699482 1.521978,1.400492 1.530156,1.557803 0.0082,0.157311 -0.312554,0.453253 -0.712737,0.657646 -7.594269,3.878795 -13.824682,11.043915 -16.549538,19.032375 -0.678297,1.98855 -1.382602,4.83559 -1.648936,6.66552 -0.128863,0.88539 -0.282065,1.04101 -1.634398,1.66012 -2.126554,0.97357 -4.692237,2.72912 -6.732172,4.60642 -0.968195,0.89101 -1.878052,1.62002 -2.021903,1.62002 -0.143854,0 -0.895289,-0.56554 -1.669859,-1.25677 z M 31.67208,117.36475 c -0.307377,-0.0604 -0.902689,-0.46904 -1.322917,-0.908 -0.6679,-0.69768 -0.762922,-0.99339 -0.755077,-2.34976 0.0097,-1.67931 0.404857,-2.36724 1.7632,-3.06967 0.918656,-0.47505 11.236052,-0.53177 12.516368,-0.0688 2.515748,0.90971 2.672262,5.02056 0.235179,6.17703 -0.680023,0.3227 -1.924247,0.39411 -6.361624,0.36512 -3.033945,-0.0198 -5.767754,-0.0855 -6.075129,-0.14592 z M 51.255712,92.315199 C 50.950793,92.145366 48.896965,90.19862 46.69165,87.989095 L 42.681986,83.971781 V 82.60996 c 0,-1.682781 0.620133,-2.814288 1.81825,-3.31761 2.121701,-0.891315 2.804522,-0.517186 7.378058,4.042561 3.825155,3.813624 4.300524,4.476239 4.293542,5.984747 -0.01114,2.407722 -2.85755,4.142121 -4.916124,2.995541 z m 49.611438,-0.242583 c -1.469581,-0.990351 -1.941753,-2.583161 -1.286682,-4.340458 0.334224,-0.896596 7.207742,-7.879222 8.295812,-8.427497 1.00304,-0.505431 2.1008,-0.490514 3.13164,0.04256 1.39021,0.718902 1.77006,1.381882 1.77984,3.106449 l 0.009,1.551758 -3.89233,3.946844 c -2.14079,2.170766 -4.24267,4.121616 -4.67086,4.335225 -1.11709,0.557278 -2.33586,0.47948 -3.36622,-0.214879 z M 76.680943,82.16841 c -0.71863,-0.172915 -1.880248,-1.30239 -2.244929,-2.182809 -0.19948,-0.481587 -0.271928,-2.569951 -0.217662,-6.27416 l 0.08134,-5.552302 0.724683,-0.949317 c 1.355595,-1.775794 3.433723,-1.915834 5.100651,-0.343718 l 0.921541,0.869126 v 6.362476 6.362478 l -0.792996,0.75003 c -1.064948,1.00725 -2.154402,1.299448 -3.572629,0.958196 z"
         id="path5695" /><path
         style="fill:#ffffff;fill-opacity:1;stroke-width:1"
         d="m 80.649693,168.47334 c -2.311572,-0.41924 -3.069474,-0.6614 -5.042384,-1.61108 -4.974794,-2.39468 -8.440745,-6.52184 -10.197692,-12.14316 -0.769308,-2.46138 -0.827596,-7.90041 -0.110567,-10.31719 2.145898,-7.23284 7.667977,-12.52463 14.623039,-14.01321 l 0.859895,-0.18404 v -2.23971 c 0,-3.47022 1.329468,-8.5076 3.073202,-11.64441 0.393605,-0.70806 0.84542,-1.52371 1.004035,-1.81257 0.614156,-1.11846 2.73554,-3.7738 4.124965,-5.16323 5.442143,-5.44214 12.164084,-8.2022 19.975924,-8.2022 6.45313,0 12.11325,1.8761 17.19791,5.70041 3.98731,2.99897 7.57622,7.81546 9.35719,12.5578 l 0.34851,0.928 2.53881,0.0735 c 5.54715,0.16059 11.12223,2.52576 15.35989,6.51627 1.16883,1.10066 3.74873,4.19445 3.74873,4.49543 0,0.0914 0.27431,0.6103 0.60959,1.15311 0.89234,1.44469 1.93128,3.98642 2.4746,6.054 0.64124,2.44016 0.65442,9.52265 0.0221,11.86627 -1.53431,5.68665 -4.67103,10.32003 -9.1917,13.57745 -2.67814,1.92976 -3.87731,2.55757 -6.74688,3.53225 -3.58158,1.21653 -4.89045,1.2636 -34.39583,1.23714 -21.213058,-0.019 -28.219126,-0.10434 -29.633329,-0.36083 z"
         id="path5693" /></g></g></svg>
